<svg xmlns="http://www.w3.org/2000/svg" viewBox="0 0 512 512"><g stroke="#fff"><path d="M195.123 180.191a7.5 7.5 0 0 0-7.5 7.5v22.44c0 4.142 3.357 7.5 7.5 7.5s7.5-3.358 7.5-7.5v-22.44a7.5 7.5 0 0 0-7.5-7.5zM235.515 180.191a7.5 7.5 0 0 0-7.5 7.5v22.44c0 4.142 3.357 7.5 7.5 7.5s7.5-3.358 7.5-7.5v-22.44a7.5 7.5 0 0 0-7.5-7.5zM275.907 180.191a7.5 7.5 0 0 0-7.5 7.5v22.44c0 4.142 3.357 7.5 7.5 7.5s7.5-3.358 7.5-7.5v-22.44a7.5 7.5 0 0 0-7.5-7.5zM316.299 180.191a7.5 7.5 0 0 0-7.5 7.5v22.44a7.5 7.5 0 0 0 15 0v-22.44a7.5 7.5 0 0 0-7.5-7.5z"/><path d="M470.306 457.884h-17.862V296.95h16.552c6.893 0 12.5-5.607 12.5-12.5v-15.663c0-6.893-5.607-12.5-12.5-12.5h-16.552V150.158c0-9.345-7.603-16.947-16.947-16.947h-4.786V112.3c0-9.649-7.851-17.5-17.5-17.5h-7.866V73.889c0-9.65-7.851-17.5-17.5-17.5h-30.446l-15.868-44.74C339.058 4.682 332.43 0 325.037 0H186.386a17.53 17.53 0 0 0-16.493 11.65l-15.868 44.739h-30.446c-9.649 0-17.5 7.85-17.5 17.5V94.8h-7.867c-9.649 0-17.5 7.851-17.5 17.5v20.911h-4.786c-9.345 0-16.947 7.602-16.947 16.947v106.128H43.005c-6.893 0-12.5 5.607-12.5 12.5v15.663c0 6.893 5.607 12.5 12.5 12.5h15.974v64.124c0 4.142 3.357 7.5 7.5 7.5s7.5-3.358 7.5-7.5v-9.045h77.844v50.777H73.979v-9.046c0-4.142-3.357-7.5-7.5-7.5s-7.5 3.358-7.5 7.5v64.125H41.694c-12.406 0-22.5 10.093-22.5 22.5V499.5c0 6.893 5.608 12.5 12.5 12.5h448.611c6.893 0 12.5-5.607 12.5-12.5v-19.116c.001-12.406-10.093-22.5-22.499-22.5zm-110.705 0v-40.079h77.843v40.079zm-45.168 0V436.31c0-4.142-3.357-7.5-7.5-7.5s-7.5 3.358-7.5 7.5v21.574H211.99v-82.745c0-24.108 19.613-43.722 43.722-43.722s43.722 19.614 43.722 43.722v28.485c0 4.142 3.357 7.5 7.5 7.5s7.5-3.358 7.5-7.5v-28.485c0-32.379-26.343-58.722-58.722-58.722s-58.722 26.343-58.722 58.722v82.745h-30.167V296.95h177.778v160.935h-30.168zm123.01-55.078H359.6v-50.777h77.843zm0-65.778H359.6V296.95h77.843zm0-186.87v106.128h-15.216v-38.254c0-12.912-10.505-23.417-23.417-23.417s-23.417 10.504-23.417 23.417v38.254H359.6V148.211h75.896a1.95 1.95 0 0 1 1.947 1.947zm-30.215 106.129h-16.834v-38.254c0-4.641 3.775-8.417 8.417-8.417s8.417 3.775 8.417 8.417zM166.822 148.211H344.6v108.075H166.822zm-45.743-74.322c0-1.379 1.121-2.5 2.5-2.5h79.074c4.143 0 7.5-3.358 7.5-7.5s-3.357-7.5-7.5-7.5H169.94l14.09-39.726a2.506 2.506 0 0 1 2.356-1.664h138.651c1.056 0 2.003.669 2.356 1.664l14.089 39.725H235.34c-4.143 0-7.5 3.358-7.5 7.5s3.357 7.5 7.5 7.5h116.735l.025.002.046-.002h35.697c1.379 0 2.5 1.121 2.5 2.5V94.8H121.079zm-25.367 59.322V112.3c0-1.378 1.121-2.5 2.5-2.5H413.21c1.379 0 2.5 1.122 2.5 2.5v20.911zm-21.733 16.947a1.95 1.95 0 0 1 1.947-1.947h75.896v108.075h-15.216v-38.254c0-12.912-10.505-23.417-23.417-23.417s-23.417 10.504-23.417 23.417v38.254H73.979zm47.627 106.129h-16.834v-38.254c0-4.641 3.775-8.417 8.417-8.417s8.417 3.775 8.417 8.417zm344.889 15v10.663H45.505v-10.663zM73.979 337.028V296.95h77.844v40.079H73.979zm0 80.778h77.844v40.079H73.979zM477.806 497H34.194v-16.616c0-4.136 3.364-7.5 7.5-7.5h428.611c4.136 0 7.5 3.364 7.5 7.5V497z"/></g></svg>