<svg xmlns="http://www.w3.org/2000/svg" viewBox="0 0 64 64"><path stroke-width=".4" stroke="#fff" d="M57.6 45.7a8.55 8.55 0 0 0-5.1-1.7h-1c-.955 0-1.904.173-2.803.487-.916-8.252-3.942-16.233-8.765-23.006a4.006 4.006 0 0 0 1.701-1.828 48.057 48.057 0 0 1 14.488 12.842l.081.107a1 1 0 0 0 1.768-.845l-2.048-8.191a15.149 15.149 0 0 0-9.63-10.607 42.404 42.404 0 0 1 13.151-.291l2.424.323a1 1 0 0 0 .647-1.849l-6.667-4A15.042 15.042 0 0 0 48.113 5h-.673c-.328 0-.652.019-.976.039l5.872-2.097A1 1 0 0 0 52 1h-6c-5.4 0-10.039 3.311-12 8.008C32.039 4.311 27.4 1 22 1h-6a1 1 0 0 0-.336 1.942l5.872 2.097c-.324-.02-.648-.039-.976-.039h-.673c-2.723 0-5.397.741-7.734 2.142l-6.667 4a1 1 0 0 0 .647 1.849l2.424-.323a42.453 42.453 0 0 1 13.149.291 15.134 15.134 0 0 0-5.637 3.558 15.175 15.175 0 0 0-3.991 7.049l-2.048 8.191a1 1 0 0 0 1.769.845l.082-.108a48.272 48.272 0 0 1 16.148-13.778c-.007.095-.029.186-.029.284 0 2.206 1.794 4 4 4a3.99 3.99 0 0 0 2.83-1.176 67.686 67.686 0 0 1 2.278 23.566C35.738 44.505 34.133 44 32.5 44h-.692l3.836-3.235A1 1 0 0 0 35 39h-5.465l-7.703-11.555c-.371-.557-1.293-.557-1.664 0L12.465 39H7a1 1 0 0 0-.64 1.768l3.991 3.326A8.546 8.546 0 0 0 6.4 45.7 6.544 6.544 0 0 1 2.5 47H1v2h1.5a8.556 8.556 0 0 0 5.1-1.7 6.544 6.544 0 0 1 3.9-1.3h1c1.397 0 2.782.462 3.9 1.3a8.55 8.55 0 0 0 5.1 1.7h1a8.556 8.556 0 0 0 5.1-1.7 6.544 6.544 0 0 1 3.9-1.3h1c1.397 0 2.782.462 3.901 1.301.153.114.314.216.473.32-.045.395-.071.792-.124 1.185l-.167 1.254A8.547 8.547 0 0 0 32.5 49h-1a8.556 8.556 0 0 0-5.1 1.7 6.544 6.544 0 0 1-3.9 1.3h-1a6.544 6.544 0 0 1-3.9-1.3 8.55 8.55 0 0 0-5.1-1.7h-1a8.556 8.556 0 0 0-5.1 1.7A6.544 6.544 0 0 1 2.5 52H1v2h1.5a8.556 8.556 0 0 0 5.1-1.7 6.544 6.544 0 0 1 3.9-1.3h1c1.397 0 2.782.462 3.9 1.3a8.55 8.55 0 0 0 5.1 1.7h1a8.556 8.556 0 0 0 5.1-1.7 6.544 6.544 0 0 1 3.9-1.3h1c1.113 0 2.211.304 3.18.847A5.973 5.973 0 0 0 34 56c0 .256.02.514.06.781A5.944 5.944 0 0 0 31 62a1 1 0 0 0 1 1h30a1 1 0 0 0 1-1 6.008 6.008 0 0 0-5.802-5.997A5.993 5.993 0 0 0 52 53a5.942 5.942 0 0 0-3 .814V51.51a6.526 6.526 0 0 1 2.5-.51h1c1.397 0 2.782.462 3.9 1.3a8.55 8.55 0 0 0 5.1 1.7H63v-2h-1.5a6.544 6.544 0 0 1-3.9-1.3 8.55 8.55 0 0 0-5.1-1.7h-1c-.851 0-1.696.145-2.508.396a48.59 48.59 0 0 0-.11-2.832A6.509 6.509 0 0 1 51.5 46h1c1.397 0 2.782.462 3.9 1.3a8.55 8.55 0 0 0 5.1 1.7H63v-2h-1.5a6.544 6.544 0 0 1-3.9-1.3zM21 29.803L27.132 39H22v-7h-2v7h-5.132zM22.5 47h-1a6.544 6.544 0 0 1-3.9-1.3c-1.206-.904-2.651-1.45-4.144-1.622L9.762 41h22.501l-4.718 3.979c-.4.209-.784.45-1.145.721a6.544 6.544 0 0 1-3.9 1.3zM47 49.799v5.304a6.169 6.169 0 0 0-1.083-.102 6.01 6.01 0 0 0-5.917-5c-.488 0-.96.065-1.415.175l.147-1.105a68.38 68.38 0 0 0 .412-4.07h7.594A45.72 45.72 0 0 1 47 49.799zm-9.174-27.817c.724.98 1.409 1.986 2.052 3.018h-2.197a69.866 69.866 0 0 0-.765-3.168c.293.083.595.137.91.15zM41.053 27a46.753 46.753 0 0 1 1.984 4h-4.31a69.168 69.168 0 0 0-.636-4zM39.3 39h6.417c.315 1.321.571 2.656.77 4h-7.246c.058-1.332.078-2.665.059-4zm-.044-2a69.498 69.498 0 0 0-.29-4h4.897a47.343 47.343 0 0 1 1.333 4zM38 20c-1.103 0-2-.897-2-2s.897-2 2-2 2 .897 2 2-.897 2-2 2zm15.982 4.051l.964 3.854a50.019 50.019 0 0 0-12.994-10.382 3.983 3.983 0 0 0-2.711-3.307 13.157 13.157 0 0 1 11.276 3.714 13.183 13.183 0 0 1 3.465 6.121zM48.113 7c2.361 0 4.68.642 6.705 1.857l2.642 1.585a44.422 44.422 0 0 0-16.129 1.628 15.162 15.162 0 0 0-4.724.715C38.972 9.224 42.969 7 47.44 7zM46 3h.228l-.971.347a22.801 22.801 0 0 0-9.366 6.319C37.576 5.749 41.473 3 46 3zM22 3c4.527 0 8.424 2.749 10.11 6.666a22.801 22.801 0 0 0-9.366-6.319L21.772 3zm-11.46 7.442l2.642-1.585A13.036 13.036 0 0 1 19.887 7h.673c4.471 0 8.469 2.224 10.833 5.785a15.11 15.11 0 0 0-4.725-.715 44.375 44.375 0 0 0-16.128-1.628zm2.514 17.467l.964-3.857a13.175 13.175 0 0 1 3.465-6.12 13.154 13.154 0 0 1 13.951-3.017c-.236.097-.463.21-.698.31-.24.081-.467.182-.684.304a50.177 50.177 0 0 0-16.998 12.38zM32 21c-1.103 0-2-.897-2-2 0-.754.424-1.404 1.042-1.745.127-.056.257-.107.384-.161.183-.055.373-.094.574-.094 1.103 0 2 .897 2 2s-.897 2-2 2zm20 34c1.605 0 3.049.955 3.68 2.433a.997.997 0 0 0 1 .604c.071-.005.142-.015.212-.024.035-.005.071-.013.108-.013a4.01 4.01 0 0 1 3.874 3H33.125a3.972 3.972 0 0 1 2.441-2.721c.481-.186.742-.707.603-1.204A3.954 3.954 0 0 1 36 56c0-2.206 1.794-4 4-4s4 1.794 4.006 3.905a1.612 1.612 0 0 0-.016.184 1 1 0 0 0 1.2.993 3.948 3.948 0 0 1 2.232.193 1 1 0 0 0 1.203-.4A3.98 3.98 0 0 1 52 55z"/><path d="M6 58h2v2H6zM11 56h2v2h-2zM14 60h2v2h-2zM23 58h2v2h-2zM28 60h2v2h-2zM26 56h2v2h-2zM19 56h2v2h-2zM2 56h2v2H2z"/></svg>