<svg width="191" height="340" viewBox="0 0 191 340" fill="none" xmlns="http://www.w3.org/2000/svg"><g clip-path="url(#a)"><path d="M133.82 191.5a8.202 8.202 0 0 0 2.87-.42c1.18-.66 1.77-1.45 3.31-.1 1.84 1.62 4 .18 5.85-1.17.92 6.21 1.8 12.18 2.74 18.47l3.5 1.4c.16 2.81.31 5.59.48 8.62l4.58.86c.16 3 .31 5.78.46 8.79l4.59 1.29c.14 2.67.28 5.44.44 8.45l4.49 1.38c.1 1.12.22 2.38.33 3.63a7.164 7.164 0 0 1-1.58.65c-1.16.1-2.33.11-3.49.12-32.987.06-65.987.113-99 .16-9.66 0-19.32-.07-29-.18-5.75-.07-11.48-.14-17.86 2h157.15v-.48l-5.57-.77c2.91-2.31 5.42-1.11 8.28-1.35 0 1.55.45 3-.08 4a7.894 7.894 0 0 0 .21 8.84c.46.74.27 1.89.41 3.1-2.42.94-5.41 1.21-5.15 4.84H19.35c-.39-1.07-.76-2.11-1.24-3.45L13.93 259c.12-1.32-.15-2.65.37-3.51 1.8-3 2.19-5.7.08-8.71-.54-.78-.27-2.13-.43-3.76l8.75-.47c.36-1.17.71-2.25 1.12-3.56l4.29-1.22c.2-2.93.39-5.7.59-8.71l4.53-.89.5-8.79 4.63-1.2c.14-2.74.29-5.52.44-8.46l4-1.59v-4.92c0-.83-.27-1.9.14-2.46 2.08-2.82 1.32-6 1.58-9.14.112-.55.272-1.089.48-1.61 2.18 1.18 4.28 2.66 6.66.51.32-.3 1.33.1 2 .26a5.612 5.612 0 0 0 3 .22 5.313 5.313 0 0 1-1.11-.59 5.938 5.938 0 0 1-1.28-1.4 7.623 7.623 0 0 1-.65-1.88c-3.06-11.58-6-23.19-9.19-34.74-3.84-14 7.71-30 23.3-29.75 4.13.07 8.27 0 12.74 0 .11-1.75.66-3.24.17-4.22-.89-1.82-2.07-3.91-3.72-4.84-1.65-.93-2.16-1.92-2-3.47.21-3.07-.87-6.28 1.2-9.21a3.3 3.3 0 0 0-.31-3.16c-1.53-1.53-1-3-.57-4.61C78.5 79.04 81.753 64.937 85 50.81c.29-1.24.41-2.52.67-4.15L75.42 46c.82-3 3.06-4.1 4.61-5.71 2.62-2.7 5.91-5 5.17-9.52-.08-.52.54-1.16.94-2l-6-6.76 9-.81c1-2.73.08-5.85 2.17-8.07.2-.21.11-.67.26-1C94.23 7 94.23 7 94.6 2.41c.21-.823.485-1.629.82-2.41.397 1.235.701 2.499.91 3.78.19 2.88-.82 6.14 2.76 7.8.44 2.41 2.67 4.22 2.25 7a9.97 9.97 0 0 0 .39 2.67L111 22l-6.18 6.44c.06.51 0 .89.15 1.13 1.43 2.11-.33 5.06 2 7 1.79 1.49 3.39 3.2 5 4.86 1.15 1.16 2.24 2.39 3.44 3.69-1.38 1.9-3.18 1.11-4.69 1.22-1.51.11-3.32 0-4.94 0-1.17 1.83-.26 3.4.09 4.93a9750.65 9750.65 0 0 0 9.81 42.3c.34 1.45 1 2.71-.52 4.08a3.32 3.32 0 0 0-.39 3.14c1.41 2.55.82 5.23.92 7.84.08 2 .59 4.56-2.58 5-.42 3-5.44 4.52-2.23 8.94 3.5 0 7.32.22 11.11 0a24.001 24.001 0 0 1 24.81 21.33 29.014 29.014 0 0 1-.94 10.33c-2.68 10.82-5.7 21.56-8.57 32.33-.54 2.13-.98 4.3-3.47 4.94zm-20.48-56l.2.16a15.346 15.346 0 0 0-2.46-2.88 37.3 37.3 0 0 0-14.82-6.57l-1.63.36c-6.94.62-12.51 4.18-17.75 8.38-5 4-7.06 9.52-7.74 15.8-4.62 1.33-7.81 4-8.44 8.89a20.446 20.446 0 0 0 0 5.47c1.17 8.24 5.43 15.3 9 22.6.66 1.34 2.22 1.12 3.59 0-1.37-3.64 1-5 4.29-5.76l-1.45-3.35c-4.24 1.16-6 .72-6.38-1.5-.38-2.22.84-3.22 5.22-4 .12-4.1.36-8.24 4.21-11.05a4.571 4.571 0 0 0 1.17-2.68c1.2-5.88 5-9.61 10-12.41 1.25-.7 2.54-1.32 4.09-2.12a28.625 28.625 0 0 1-2.44-2.28c-1.89-2.22-1.79-4.84.16-6.69a4.878 4.878 0 0 1 6.38-.15 4.562 4.562 0 0 1 1.711 3.215 4.568 4.568 0 0 1-1.181 3.445 26.767 26.767 0 0 1-2.57 2.45c2.34 1.31 4.39 2.4 6.37 3.58a15.694 15.694 0 0 1 7 8.8c.82 2.56 1.44 4.94 3.67 6.82 1.11.93 1.49 2.89 1.87 4.46.242 1.437.355 2.893.34 4.35 4.59 1.19 6 2.4 5.37 4.49-.63 2.09-2.52 2.49-6.49 1l-1.36 3.53c4 .42 4.73 3.15 4.54 6.16 1.72.61 2.92.74 3.69-.88 1.49-3.16 3.08-6.26 4.56-9.42a44.823 44.823 0 0 0 4.22-14.31c.63-5.87-1.76-9.79-7.3-12.16a8.775 8.775 0 0 1-1.22-.8 48.39 48.39 0 0 0-1.22-5.4c-1.34-3.95-2.91-7.81-7.2-9.59v.04zM17.73 254.55h116.34c12.83 0 25.86.21 38.87-.17v-6.1c-.67-.35-1-.62-1.25-.62-37.5-.067-74.997-.117-112.49-.15-13.49 0-27 .16-40.47.25a.813.813 0 0 0-.43.22c-.2.152-.39.316-.57.49v6.08zm71.66-130c-8 0-16-.26-23.9.09a19.291 19.291 0 0 0-12.85 6c-5.82 5.83-8.37 12.8-6.36 20.91 2.86 11.61 6 23.15 9.13 34.71a12.4 12.4 0 0 0 1.23 2.33c3.59-.34 7.19.79 11-.8-1-1.92-1.92-3.46-2.58-5.12-2-5.08-4.14-10.14-5.79-15.34a20.179 20.179 0 0 1-.5-7.41c.39-5.37 3.66-8.71 8.6-10.64 1.78-13.35 11.31-19.38 22.02-24.78v.05zm33.44 64h9.51c2 0 2.95-1 3.33-3 .42-2.12 1.07-4.19 1.63-6.27 2.32-8.68 4.61-17.37 7-26a22.54 22.54 0 0 0-22.3-28.92c-5.48.25-11 0-16.48 0-1.41 0-2.81.2-5.3.39 2.35 1.13 3.67 1.78 5 2.4 8.84 4.12 15.75 9.92 17.84 20.07a4.208 4.208 0 0 0 1.9 2.6c6.78 3.51 7.95 9.3 6.86 16.11-1 6.34-3.74 12.05-6.61 17.69-.61 1.38-1.21 2.63-2.38 4.91v.02zm-16.63-.18a75.824 75.824 0 0 0 2.87-7.71 73.75 73.75 0 0 0 1.61-9.25 5.768 5.768 0 0 0-2-5.38 5.908 5.908 0 0 1-2.17-4.17c-.87-5.17-4.22-8.47-8.74-10.77a4.9 4.9 0 0 0-4.74 0c-4.57 2.28-7.75 5.59-8.72 10.77-.2 1.09-.43 2.52-1.18 3.1-3.3 2.55-3.47 6-2.78 9.49.94 4.66 2.44 9.21 3.73 13.89l22.12.03zM101.8 77.5l-.11 1.5c-3.43.06-6.85.13-10.27.17-3.62 0-7.23.05-10.67.07-.86 2.25-1.85 3.85-.75 6.21 3.55 0 7.18-.12 10.81 0 3.63.12 7.34-.54 10.92 1-3.7 1-7.45.74-11.17.78-4 0-7.91.11-11.89.17-.9 2.72-1.89 5-1.26 8 12 0 23.94.09 35.8 0a20.29 20.29 0 0 0-2.48-11.4c-5.52-.78-11.29.44-16.88-1.13 5.36-1.81 11-.21 17-1.53-.52-2-1-3.84-1.5-5.86-4.72 0-9 .1-13.34 0s-8.74.63-13-1.12a119.5 119.5 0 0 1 12.67-.66c4.25-.09 8.53.35 13.07-.31-1.15-4.26-5.23-1.36-7.33-3.88l6.16-1.07c-4.72-2.88-10-.59-15.59-2.56 5.22-2.19 10.2.25 14.46-1.69.26-2.09-.73-2.57-2.31-2.69-2.35-.18-4.82.48-7.07-1.45l7.72-.7c-2.34-.87-4.67-.65-6.93-.94-2.26-.29-4.83.9-7.37-1.14 2.93-1.18 5.48-.35 7.87-.78 2.06-.37 4.92 1.43 6.24-1.66-1.58-2.09-4.4-.07-6-2.39l5.81-1.44c-1.23-1.23-1.91-2.52-2.66-2.55-4.15-.21-8.32-.23-12.48-.06-2 .08-2.29 1.43-1.58 2.95 3.12 1.37 6.59-.67 10.16 2l-11 .54c-1.25 1.93-1.81 3.55-.93 5.55 1.48.06 2.8.08 4.1.19 1.3.11 2.62-.56 3.55 1.48l-9.08.56c-.43 2.28-.83 4.43-1.21 6.5l7.16 2.17-7.86.72c-.366.844-.67 1.713-.91 2.6a30.081 30.081 0 0 0-.22 3.13c6.87 1.34 13.71-.34 20.35.72zm69 183.32c-2.29-1.7-4.15-1.25-5.88-1.25H34.54c-3.83 0-7.66-.05-11.48.05a7.99 7.99 0 0 0-2.4.89 7.003 7.003 0 0 0 4.29 1.36c40.97.9 141.33.33 145.83-1.05h.02zm-57.25-149.58v-7.84c-12.3 0-24.31-.2-36.75.13.21 2.89-.8 5.32.91 7.71h35.84zm41.12 117.42a8.384 8.384 0 0 0 .12-7.83h-31.7v6.77c10.65 1.93 21.11.67 31.58 1.06zM118 217.36c10.75 2.52 21.3 1 32.15 1.41v-7.17c-4.33-1.12-27.55-1.13-32.15 0v5.76zm42.43 13.54c-7.69-1-28.81-.65-32.12.48-.06 1.1-.21 2.26-.16 3.4.05 1.14.32 2.18.55 3.67 5.53 0 10.79.08 16.05 0 5.26-.08 10.45.48 15.68-.42v-7.13zm-129.78-.18v7.14c5.5.92 28.21.8 31.84-.17v-7l-31.84.03zm90.14-8.49c-1.73-.19-2.86-.41-4-.41H73.96a5.576 5.576 0 0 0-2.44.15 3.621 3.621 0 0 0-1.7 2.06 1.942 1.942 0 0 0 1.81 2.47 24.63 24.63 0 0 0 3 .11h41.82c1.29 0 2.58-.22 4.1-.35.06-1.36.13-2.44.23-4.03h.01zm4.92 8.18c-2.38 2.16-4.6 1.83-6.73 1.83-15.63 0-31.25 0-46.87-.06a66.296 66.296 0 0 1-7.18-.8v4.77c5.13.92 57.1.79 61.07-.16-.09-1.55-.17-3.15-.3-5.58h.01zm-58.21-9.5c-8.64-.74-28.06-.49-31.74.38v7.37c10.8-.35 21.18.81 31.74-1v-6.75zm-26.74-9.28v7.18c10.81-.59 21.32 1.2 31.87-1.47v-5.88c-4.93-1.07-28.12-.92-31.88.17h.01zm36.43-10.28c-11.06-.07-21.58-.38-32.28.17v7.08c1.75.12 3.19.29 4.64.3 5.14 0 10.29-.1 15.44 0 4.16.12 8.19-.11 12.2-2.29v-5.26zm68.69.41c-6.64-1-28.73-.68-32.16.36v4.53c3.65 2.23 7.38 2.36 11.2 2.29 5.47-.1 10.94 0 16.4 0 1.45 0 2.89-.17 4.56-.27v-6.91zm-70.9 14c9.81 1.11 39 .8 40.58-.61 0-.83-.08-1.9-.14-3.26H75.28c-.11 1.4-.2 2.49-.28 3.88l-.02-.01zm36.3-171.92c-3-4.65-6.51-7-11.81-6.34a40.828 40.828 0 0 1-9.44 0c-5.19-.6-7.71 2.57-10.37 6.21 4.07 1.04 26.69 1.13 31.62.13zM174 257.43c-6.48-1.44-154-1.19-158.67 0H174zm-62.52-51.82c-.07-1.67-.12-2.75-.18-4H79.46c.09 1.53.17 2.72.26 4h31.76zM84.81 23.69C86.39 27 88.6 28 91.55 27.78a60.06 60.06 0 0 1 7.47 0 6.719 6.719 0 0 0 7.11-4.1l-21.32.01zm23 96.36c-4.71-2.3-21.45-2.18-24.73-.86-.15 1.94 1.2 2.15 2.6 2.15 6.49 0 13 .06 19.48 0 .91-.06 1.78-.86 2.67-1.29h-.02zm22.74 121.09c-3.55-1-65.55-1.14-70.3-.14 3.49 1 65.75 1.13 70.32.14h-.02zM78.06 99.31c1.17.6 1.59 1 2 1 10.126.06 20.256.06 30.39 0 .65 0 1.3-.64 2.33-1.18-4.78-1.13-30.29-1.04-34.72.18zm86.6 142.09c-4.81-1.36-27.23-1.23-31.67 0h31.67zm-107.8 0c-6.39-1.49-27.44-1.26-31.41 0h31.41zm47.37-208.9c-3.52-1.57-6.33-1-9-1-2.54 0-5.34-.88-8 1.17 4.24 1.33 12.53 1.33 17-.17zm-8.6 104a2.997 2.997 0 0 0-3.09 2.58 3.13 3.13 0 0 0 2.65 3.11 2.996 2.996 0 0 0 3.06-2.67 2.86 2.86 0 0 0-2.62-2.99v-.03zM0 336.3v-18c.14-.716.38-1.409.71-2.06l6.59-.57.86-5.46 7.27-.67c.26-1.64.48-3.07.73-4.66l4.25-1c.44-1.14 1-2.47 1.51-3.91l6.4-.72c.13-9.78.11-19.36 0-29.2l-5.11-1.17V266c.42-.08.93-.27 1-.16 1.35 2 3.37 1.77 5.37 1.76h130.44c2.39 0 5.1.9 7.09-2.81l.36 4.07-4.19 1c-1.06 1.24-1.28 21.78-.4 29.48l5.95.65 1.31 3.74 4.12.92c.32 1.58.62 3 1 4.87l7.06.64c.38 1.77.74 3.5 1.17 5.5l6.86.72v20c-2.06.08-3.84.2-5.62.2h-68.95c-3.35 0-3.35 0-5.23 2.32H84.03c-1.84 0-3.85.83-5.2-1.69-.4-.75-2.76-.6-4.22-.6H5.15c-1.48-.06-2.95-.19-5.15-.31zm160.42-66.85c-16.92 0-33.32-.12-49.75.06-.49 2.5.3 5.08-2.75 5.75-.37.08-.62 1.46-.63 2.24-.05 6.94 0 13.89 0 20.9 3.57.41 1.29-3.35 3.51-4.08.37 1.17.72 2.33 1 3.31h47.62a.882.882 0 0 0 .44-.2c.13-.1.22-.25.56-.62v-27.36zM30.49 297.63h48.25l1.77-3.27c.73 1.74 1.25 3 2.12 5a11.09 11.09 0 0 0 .94-2.55c.06-6.493.08-12.987.06-19.48 0-.64-.1-1.75-.41-1.85-3-.93-2.42-3.86-3.29-5.8-12.48-.95-45.93-.51-49.44.64v27.31zm49 36.84c0-5.74.52-11-.36-16.35a25.675 25.675 0 0 0-2.71-.3c-23.833 0-47.66.017-71.48.05a11.12 11.12 0 0 0-2.63.63v16l77.18-.03zm109.19.1c.18-5.78.28-11 0-16.53H111.4c0 5.67-.25 11 .15 16.53h77.13zM79.16 312c-1.4-.13-2.53-.32-3.66-.32h-61a7.984 7.984 0 0 0-3 .2 2.944 2.944 0 0 0-1.67 2c0 .66.93 1.57 1.67 1.94a5.9 5.9 0 0 0 2.46.1h61.5c1.32-.09 2.633-.267 3.93-.53-.07-1.31-.14-2.23-.23-3.39zm101.23 3.7c.75-2.54.39-3.89-2-4-.83 0-1.66-.08-2.49-.08h-60.95a24.571 24.571 0 0 0-3.31.42v3.57l68.75.09zM49 306.19H22.58a12.298 12.298 0 0 0-3.45.24 2.607 2.607 0 0 0-1.2 1.83c-.07.39.68 1.25 1.15 1.32 1.478.204 2.969.287 4.46.25H77c1.25 0 2.43-.22 2.44-1.79.01-1.57-1.17-1.81-2.41-1.85H49zm62.53 3.64h54.89c1.333 0 2.667-.02 4-.06 2.42-.07 2.62-1.38 1.92-3.38h-60.8l-.01 3.44zm-32.26-8c-1.39-.12-2.67-.32-4-.32H27.33a10.074 10.074 0 0 0-3 .18c-.52.17-.81 1.05-1.67 2.27 3.19.14 5.64.33 8.09.34h26c6.66 0 13.31-.1 20-.14 1.16-.02 2.5.37 2.55-2.31l-.03-.02zm32 .41c.46.71.75 1.72 1.24 1.82 1.321.218 2.663.288 4 .21H155c3.49 0 7-.06 10.48-.12 1.3 0 2.38-.31 1.84-2-4.25-.94-51.69-.91-56.02.11l-.03-.02zm-13.1-15.66c-.72 1.77-1.5 3.58.63 4.68a3.28 3.28 0 0 0 3.09-.5c1-1.13.88-2.72-.29-4.18h-3.43z" fill="#000"/><path d="M96.26 126.17a37.3 37.3 0 0 1 14.82 6.57 15.346 15.346 0 0 1 2.46 2.88c-5.27.36-5.87 1.4-3.7 6.41-3.58 3.08-4.39 6-2.29 8.32a4.877 4.877 0 0 0 6.72.3c2.49-2.15 2.12-4.62-1.44-8.66 2.14-2 2.27-4.19.51-6.53 4.29 1.78 5.86 5.64 7.2 9.6a48.39 48.39 0 0 1 1.22 5.4c.383.3.792.568 1.22.8 5.54 2.37 7.93 6.29 7.3 12.16a44.823 44.823 0 0 1-4.22 14.31c-1.48 3.16-3.07 6.26-4.56 9.42-.77 1.62-2 1.49-3.69.88.19-3-.54-5.74-4.54-6.16l1.36-3.53c4 1.48 5.82 1.16 6.49-1 .67-2.16-.78-3.3-5.37-4.49a24.667 24.667 0 0 0-.34-4.35c-.38-1.57-.76-3.53-1.87-4.46-2.23-1.88-2.85-4.26-3.67-6.82a15.694 15.694 0 0 0-7-8.8c-2-1.18-4-2.27-6.37-3.58a26.767 26.767 0 0 0 2.57-2.45 4.578 4.578 0 0 0 1.181-3.445 4.555 4.555 0 0 0-1.711-3.215 4.878 4.878 0 0 0-6.38.15c-2 1.85-2 4.47-.16 6.69.776.79 1.597 1.535 2.46 2.23-1.55.8-2.84 1.42-4.09 2.12-5 2.8-8.79 6.53-10 12.41a4.57 4.57 0 0 1-1.18 2.67c-3.85 2.81-4.09 7-4.19 11.05-4.38.82-5.63 1.82-5.22 4 .41 2.18 2.14 2.66 6.38 1.5l1.45 3.35c-3.32.75-5.66 2.12-4.29 5.76-1.37 1.09-2.93 1.31-3.59 0-3.56-7.3-7.82-14.36-9-22.6a20.455 20.455 0 0 1 0-5.47c.63-4.88 3.82-7.56 8.44-8.89.68-6.28 2.75-11.81 7.74-15.8 5.24-4.2 10.81-7.76 17.75-8.38a11.016 11.016 0 0 0-1.66 1.82c-.94 1.61-.87 3.3.82 4.28a3.81 3.81 0 0 0 3.07.15c1.81-.86 1.84-2.58 1.08-4.22a15.613 15.613 0 0 0-1.71-2.38zM78 142.07c-3.63 4-4 6.42-1.45 8.61a4.999 4.999 0 0 0 6.76-.42c2-2.26 1.35-4.79-2.24-8.38 1.44-3.4 1.46-4.79-.1-5.72a2.997 2.997 0 0 0-4.06.44c-1.78 2.04-.33 3.64 1.09 5.47zm-3.62 17.13a4.831 4.831 0 0 0-9.66.18 5.24 5.24 0 0 0 4.93 4.74 5.118 5.118 0 0 0 4.73-4.92zm46.67 4.86a5.243 5.243 0 0 0 5-4.58 4.942 4.942 0 0 0-4.62-4.9 4.524 4.524 0 0 0-3.443 1.146 4.537 4.537 0 0 0-1.497 3.304 5.001 5.001 0 0 0 4.56 5.03zM88.5 131.11c-2.15 0-3.82 1.59-3.56 2.86a2.598 2.598 0 0 0 2.63 2.44c1.69 0 3-1.18 2.62-2.76a8.31 8.31 0 0 0-1.69-2.54zM17.73 254.55v-6.09c.181-.174.371-.338.57-.49a.813.813 0 0 1 .43-.22c13.49-.09 27-.25 40.47-.25 37.5 0 74.997.05 112.49.15.29 0 .58.27 1.25.62v6.1c-13 .38-25.94.12-38.87.17-12.93.05-25.66 0-38.5 0H17.73v.01z" fill="#fff"/><path d="M89.39 124.5c-10.71 5.4-20.24 11.43-22 24.71-4.94 1.93-8.21 5.27-8.6 10.64a20.181 20.181 0 0 0 .5 7.41c1.65 5.2 3.77 10.26 5.79 15.34.66 1.66 1.6 3.2 2.58 5.12-3.84 1.59-7.44.46-11 .8a12.405 12.405 0 0 1-1.23-2.33c-3.09-11.56-6.27-23.1-9.13-34.71-2-8.11.54-15.08 6.36-20.91a19.291 19.291 0 0 1 12.85-6c7.93-.33 15.91-.07 23.88-.07zM122.83 188.53c1.13-2.28 1.77-3.58 2.42-4.87 2.87-5.64 5.59-11.35 6.61-17.69 1.09-6.81-.08-12.6-6.86-16.11a4.212 4.212 0 0 1-1.9-2.6c-2.09-10.15-9-15.95-17.84-20.07-1.33-.62-2.65-1.27-5-2.4 2.49-.19 3.89-.38 5.3-.39 5.49 0 11 .21 16.48 0a22.545 22.545 0 0 1 18.467 8.793 22.533 22.533 0 0 1 4.288 9.604 22.531 22.531 0 0 1-.535 10.503c-2.35 8.67-4.64 17.36-7 26-.56 2.08-1.21 4.15-1.63 6.27-.38 1.93-1.33 3-3.33 3l-9.47-.04zM106.2 188.35H84.06c-1.29-4.68-2.79-9.23-3.73-13.89-.69-3.45-.52-6.94 2.78-9.49.75-.58 1-2 1.18-3.1 1-5.18 4.15-8.49 8.72-10.77a4.9 4.9 0 0 1 4.74 0c4.52 2.3 7.87 5.6 8.74 10.77a5.922 5.922 0 0 0 2.17 4.17 5.76 5.76 0 0 1 2 5.38 73.538 73.538 0 0 1-1.61 9.25 75.744 75.744 0 0 1-2.85 7.68zM101.8 77.5c-6.64-1.06-13.48.62-20.36-.65.019-1.046.092-2.091.22-3.13.24-.887.545-1.756.91-2.6l7.86-.72-7.16-2.17c.38-2.07.78-4.22 1.21-6.5l9.08-.56c-.93-2-2.39-1.39-3.55-1.48-1.16-.09-2.62-.13-4.1-.19-.88-2-.32-3.62.93-5.55l11-.54c-3.57-2.71-7-.67-10.16-2-.71-1.52-.42-2.87 1.58-2.95 4.16-.17 8.33-.15 12.48.06.75 0 1.43 1.32 2.66 2.55l-5.82 1.33c1.62 2.32 4.44.3 6 2.39-1.32 3.09-4.18 1.29-6.24 1.66-2.39.43-4.94-.4-7.87.78 2.54 2 5.11.85 7.37 1.14 2.26.29 4.59.07 6.93.94l-7.72.7c2.25 1.93 4.72 1.27 7.07 1.45 1.58.12 2.57.6 2.31 2.69-4.26 1.94-9.24-.5-14.46 1.69 5.6 2 10.87-.32 15.59 2.56l-6.16 1.07c2.1 2.52 6.18-.38 7.33 3.88-4.54.66-8.82.22-13.07.31-4.229-.004-8.455.216-12.66.66 4.23 1.75 8.64 1 13 1.12 4.36.12 8.62 0 13.34 0 .52 2 1 3.82 1.5 5.86-5.95 1.32-11.61-.28-17 1.53 5.59 1.57 11.36.35 16.88 1.13a20.294 20.294 0 0 1 2.48 11.48c-11.86.11-23.75.06-35.8 0-.63-3 .36-5.29 1.26-8 4-.06 7.93-.13 11.89-.17 3.72 0 7.47.24 11.17-.78-3.58-1.54-7.29-.84-10.92-1-3.63-.16-7.26 0-10.81 0-1.1-2.36-.11-4 .75-6.21 3.44 0 7 0 10.67-.07 3.42 0 6.84-.11 10.27-.17l.12-1.54zm7.2 13.74l.13-1.65c-3 0-6.11-.13-9.16-.16s-6.29 0-9.43 0c-6.77 0-6.77 0-9.24 1.77 9.7.1 18.7.06 27.7.04zM170.78 260.82c-4.5 1.38-104.86 1.95-145.85 1a7.003 7.003 0 0 1-4.29-1.36 7.991 7.991 0 0 1 2.4-.89c3.82-.1 7.65-.05 11.48-.05H164.9c1.73.05 3.59-.4 5.88 1.3zM113.55 111.24H77.71c-1.71-2.39-.7-4.82-.91-7.71 12.44-.33 24.45-.17 36.75-.13v7.84zM154.67 228.66c-10.47-.39-20.93.87-31.58-1.06v-6.77h31.7a8.379 8.379 0 0 1-.12 7.83zM118 217.36v-5.79c4.6-1.1 27.82-1.09 32.15 0v7.17c-10.86-.42-21.41 1.14-32.15-1.38zM160.42 230.9v7.1c-5.23.9-10.48.32-15.68.42-5.2.1-10.52 0-16.05 0-.23-1.49-.5-2.57-.55-3.67-.05-1.1.1-2.3.16-3.4 3.31-1.1 24.43-1.45 32.12-.45zM30.64 230.72h31.84v7c-3.63 1-26.34 1.09-31.84.17v-7.17zM120.78 222.23c-.1 1.59-.17 2.67-.25 4-1.52.13-2.81.34-4.1.35H74.61a24.43 24.43 0 0 1-3-.11 1.928 1.928 0 0 1-1.495-.8 1.94 1.94 0 0 1-.295-1.67 3.621 3.621 0 0 1 1.7-2.06 5.59 5.59 0 0 1 2.48-.14h42.83c1.09.02 2.22.2 3.95.43zM125.7 230.41c.13 2.43.21 4 .29 5.58-4 .95-55.94 1.08-61.07.16v-4.77c2.377.397 4.774.664 7.18.8 15.62.08 31.24.06 46.87.06 2.13 0 4.35.33 6.73-1.83zM67.49 220.91v6.72c-10.56 1.84-20.94.68-31.74 1v-7.37c3.68-.84 23.1-1.09 31.74-.35zM40.75 211.63c3.76-1.09 27-1.24 31.87-.17v5.88c-10.55 2.67-21.06.88-31.87 1.47v-7.18zM77.18 201.35v5.31c-4 2.18-8 2.41-12.2 2.29-5.15-.15-10.3 0-15.44 0-1.45 0-2.89-.18-4.64-.3v-7.08c10.7-.57 21.22-.29 32.28-.22zM145.87 201.76v6.87c-1.67.1-3.11.26-4.56.27-5.46 0-10.93-.06-16.4 0-3.82.07-7.55-.06-11.2-2.29v-4.53c3.43-1 25.52-1.28 32.16-.32zM75 215.77c.11-1.39.2-2.48.31-3.87h40.13c.06 1.36.11 2.43.14 3.26-1.58 1.41-30.8 1.72-40.58.61zM111.28 43.84c-4.93 1-27.55.91-31.62-.14 2.66-3.64 5.18-6.81 10.37-6.21 3.136.365 6.304.365 9.44 0 5.3-.61 8.85 1.7 11.81 6.35zM174 257.43H15.3c4.7-1.19 152.19-1.43 158.7 0zM111.45 205.61H79.72c-.09-1.32-.17-2.51-.26-4h31.81c.06 1.25.11 2.33.18 4zM84.81 23.69h21.32a6.72 6.72 0 0 1-7.13 4.1 60.06 60.06 0 0 0-7.47 0c-2.93.21-5.14-.79-6.72-4.1zM107.83 120.05c-.89.43-1.76 1.23-2.65 1.25-6.49.1-13 .07-19.48 0-1.4 0-2.75-.21-2.6-2.15 3.28-1.28 20.02-1.4 24.73.9zM130.57 241.14c-4.6 1-66.83.88-70.32-.13 4.75-1.01 66.75-.87 70.32.13zM78.06 99.31c4.43-1.22 30-1.27 34.72-.13-1 .54-1.68 1.18-2.33 1.18-10.134.04-20.264.04-30.39 0-.41-.05-.83-.45-2-1.05z" fill="#fff"/><path d="M96.26 126.17a15.647 15.647 0 0 1 1.74 2.38c.76 1.64.73 3.36-1.08 4.22a3.816 3.816 0 0 1-3.07-.15c-1.69-1-1.76-2.67-.82-4.28a11.022 11.022 0 0 1 1.62-1.81l1.61-.36z" fill="#000"/><path d="M164.66 241.4H133c4.43-1.23 26.85-1.4 31.66 0zM56.86 241.43H25.45c3.97-1.26 25.02-1.49 31.41 0zM104.23 32.5c-4.47 1.49-12.76 1.51-17 .2 2.68-2.05 5.48-1.12 8-1.17 2.67-.05 5.48-.6 9 .97zM95.63 136.53a2.859 2.859 0 0 1 2.62 3 2.997 2.997 0 0 1-3.06 2.67 3.13 3.13 0 0 1-2.65-3.11 3.001 3.001 0 0 1 3.09-2.56zM160.42 269.45v27.36c-.34.37-.43.52-.56.62a.882.882 0 0 1-.44.2H111.8c-.31-1-.66-2.14-1-3.31-2.22.73.06 4.49-3.51 4.08v-20.9c0-.78.26-2.16.63-2.24 3-.67 2.26-3.25 2.75-5.75 16.43-.18 32.83-.06 49.75-.06zm-15.81 26v-13.27c0-2.29-.4-4.64 1.6-6.54.45-.43.07-1.74.07-2.7h-19c0 1.08-.33 2.27.05 2.57 2.21 1.77 1.75 4.13 1.75 6.42 0 3.33-.07 6.66 0 10 .097 1.189.267 2.372.51 3.54l15.02-.02zM30.49 297.63v-27.29c3.51-1.15 37-1.59 49.44-.64.87 1.94.34 4.87 3.29 5.8.31.1.41 1.21.41 1.85 0 6.487-.02 12.98-.06 19.48a11.09 11.09 0 0 1-.94 2.55l-2.12-5-1.77 3.27-48.25-.02zm15.76-2.21c5.106.507 10.25.483 15.35-.07v-9.43c.07-3.72-.78-7.59 1.85-10.92.26-.33-.17-1.2-.32-2.07-1.45-.1-2.74-.25-4-.25-4.32 0-8.64-.06-13 .07-1.94.06-3 1.85-1.8 2.94 2.18 1.94 1.6 4.16 1.62 6.43.05 4.28.2 8.56.3 13.3zM79.44 334.47H2.26v-16a11.12 11.12 0 0 1 2.63-.63c23.826-.053 47.653-.07 71.48-.05.908.052 1.812.152 2.71.3.92 5.4.37 10.64.36 16.38zM59.82 320.1a28.353 28.353 0 0 0-11.35 0c.52 4.64 1 8.94 1.48 13.13h8.76c.37-4.36.71-8.4 1.11-13.13zm-33.9-.25c-3.68 0-7.48-.89-11.08.41.39 4.59.75 8.78 1.12 13.06 3.27.26 6.17.87 8.93-.48.34-4.31.66-8.39 1.03-12.99zM188.63 334.57h-77.08c-.4-5.48-.15-10.86-.15-16.53h77.18c.33 5.52.23 10.75.05 16.53zm-47.52-1.27c.34-4.59.65-8.79 1-13.24a28.99 28.99 0 0 0-11 0c.36 4.49.7 8.7 1.06 13.21l8.94.03zm33.9 0c.38-4.79.7-8.89 1.07-13.53-3.71.13-7.53-.92-11.14.52.41 4.6.79 8.8 1.16 13l8.91.01zM79.16 312c.09 1.16.16 2.08.27 3.41-1.297.263-2.61.44-3.93.53H14a5.9 5.9 0 0 1-2.46-.1c-.74-.37-1.68-1.28-1.67-1.94a2.943 2.943 0 0 1 1.67-2 7.984 7.984 0 0 1 3-.2h61c1.09-.02 2.22.17 3.62.3zM180.39 315.7h-68.73v-3.57a24.592 24.592 0 0 1 3.31-.42c20.32-.04 40.637-.04 60.95 0 .83 0 1.66 0 2.49.08 2.37.02 2.73 1.37 1.98 3.91zM49 306.19h28c1.24 0 2.43.29 2.41 1.85-.02 1.56-1.19 1.78-2.44 1.79H23.54a27.6 27.6 0 0 1-4.46-.25c-.47-.07-1.22-.93-1.15-1.32a2.597 2.597 0 0 1 1.2-1.83 12.298 12.298 0 0 1 3.45-.24H49zM111.56 309.83v-3.44h60.8c.7 2 .5 3.31-1.92 3.38-1.334.04-2.667.06-4 .06h-54.88zM79.3 301.85c0 2.68-1.39 2.29-2.51 2.3-6.66 0-13.31.12-20 .14h-26c-2.45 0-4.9-.2-8.09-.34.86-1.22 1.15-2.1 1.67-2.27.986-.21 1.997-.27 3-.18h47.94c1.32.03 2.6.23 3.99.35zM111.3 302.26c4.33-1 51.77-1.05 56-.11.54 1.72-.54 2-1.84 2-3.49.06-7 .12-10.48.12h-38.49a18.097 18.097 0 0 1-4-.21c-.44-.06-.73-1.06-1.19-1.8zM98.17 286.58h3.43c1.17 1.46 1.33 3.05.29 4.18a3.28 3.28 0 0 1-3.09.5c-2.13-1.1-1.35-2.91-.63-4.68z" fill="#fff"/><path d="M113.34 135.46c1.76 2.34 1.63 4.58-.51 6.53 3.56 4 3.93 6.51 1.44 8.66a4.88 4.88 0 0 1-6.72-.3c-2.1-2.29-1.29-5.24 2.29-8.32-2.17-5-1.57-6.05 3.7-6.41l-.2-.16zM78 142.07c-1.42-1.83-2.87-3.43-1.09-5.47a2.998 2.998 0 0 1 4.06-.44c1.56.93 1.54 2.32.1 5.72 3.59 3.59 4.26 6.12 2.24 8.38a5.003 5.003 0 0 1-6.76.42C74 148.49 74.37 146 78 142.07zm1.49 2.33a2.772 2.772 0 0 0-1.923.919 2.779 2.779 0 0 0-.707 2.011 2.859 2.859 0 0 0 3 2.55 2.704 2.704 0 0 0 1.946-.871A2.71 2.71 0 0 0 82.52 147a2.807 2.807 0 0 0-1.934-2.472 2.823 2.823 0 0 0-1.096-.128zM74.38 159.2a5.121 5.121 0 0 1-4.73 4.92 5.241 5.241 0 0 1-4.93-4.74 4.832 4.832 0 0 1 9.66-.18zm-4.94 2.8a2.998 2.998 0 0 0 3-2.67 2.89 2.89 0 0 0-2.77-2.86 2.999 2.999 0 0 0-3 2.66 3 3 0 0 0 2.77 2.87zM121.05 164.06a5 5 0 0 1-4.51-5 4.539 4.539 0 0 1 1.498-3.304 4.53 4.53 0 0 1 3.442-1.146 4.936 4.936 0 0 1 3.274 1.541 4.933 4.933 0 0 1 1.346 3.359 5.24 5.24 0 0 1-5.05 4.55zm.35-7.62a2.813 2.813 0 1 0-.29 5.62 2.813 2.813 0 0 0 .29-5.62zM88.5 131.11a8.31 8.31 0 0 1 1.69 2.54c.4 1.58-.93 2.76-2.62 2.76a2.602 2.602 0 0 1-2.63-2.41c-.26-1.3 1.41-2.88 3.56-2.89zM109 91.24c-9 0-18 .06-27.7 0 2.47-1.77 2.47-1.77 9.24-1.77h9.43c3.14 0 6.11.11 9.16.16l-.13 1.61zM144.61 295.49h-15.08A29.164 29.164 0 0 1 129 292c-.05-3.32 0-6.65 0-10 0-2.29.46-4.65-1.75-6.42-.38-.3-.05-1.49-.05-2.57h19c0 1 .38 2.27-.07 2.7-2 1.9-1.59 4.25-1.6 6.54.07 4.26.08 8.55.08 13.24zM46.25 295.42c-.1-4.74-.22-9-.27-13.3 0-2.27.56-4.49-1.62-6.43-1.23-1.09-.14-2.88 1.8-2.94 4.31-.13 8.63-.09 13-.07 1.29 0 2.58.15 4 .25.15.87.58 1.74.32 2.07-2.63 3.33-1.78 7.2-1.85 10.92v9.43a74.236 74.236 0 0 1-15.38.07zM59.82 320.1c-.4 4.73-.74 8.77-1.11 13.16H50c-.47-4.19-1-8.49-1.48-13.13a28.36 28.36 0 0 1 11.3-.03zM25.92 319.85c-.37 4.6-.69 8.68-1 13-2.76 1.35-5.66.74-8.93.48-.37-4.28-.73-8.47-1.12-13.06 3.57-1.27 7.37-.44 11.05-.42zM141.11 333.3h-9c-.36-4.51-.7-8.72-1.06-13.21a28.99 28.99 0 0 1 11 0c-.29 4.42-.6 8.62-.94 13.21zM175 333.32h-8.9c-.37-4.21-.75-8.41-1.16-13 3.61-1.44 7.43-.39 11.14-.52-.37 4.63-.69 8.73-1.08 13.52z" fill="#000"/><path d="M79.49 144.4a2.809 2.809 0 0 1 3 2.55 2.71 2.71 0 0 1-2.62 2.93 2.858 2.858 0 0 1-3-2.55 2.778 2.778 0 0 1 2.62-2.93zM69.44 162a3.001 3.001 0 0 1-2.77-2.87 3.001 3.001 0 0 1 3-2.66 2.892 2.892 0 0 1 2.77 2.86 3 3 0 0 1-3 2.67zM121.4 156.44a2.809 2.809 0 0 1 .187 5.587 2.807 2.807 0 0 1-2.802-1.357 2.797 2.797 0 0 1-.385-1.58 2.869 2.869 0 0 1 3-2.65z" fill="#fff"/></g><defs><clipPath id="a"><path fill="#fff" d="M0 0h190.33v339.01H0z"/></clipPath></defs></svg>