<svg xmlns="http://www.w3.org/2000/svg" viewBox="0 0 512 512"><path d="M109.885 377.947a7.5 7.5 0 0 0-7.5 7.5v21.257a7.5 7.5 0 0 0 7.5 7.5 7.5 7.5 0 0 0 7.5-7.5v-21.257a7.5 7.5 0 0 0-7.5-7.5zM146.777 377.947a7.5 7.5 0 0 0-7.5 7.5v21.257a7.5 7.5 0 0 0 7.5 7.5 7.5 7.5 0 0 0 7.5-7.5v-21.257a7.5 7.5 0 0 0-7.5-7.5zM365.221 377.947a7.5 7.5 0 0 0-7.5 7.5v21.257c0 4.143 3.357 7.5 7.5 7.5s7.5-3.357 7.5-7.5v-21.257c0-4.143-3.357-7.5-7.5-7.5zM402.113 377.947a7.5 7.5 0 0 0-7.5 7.5v21.257c0 4.143 3.357 7.5 7.5 7.5a7.5 7.5 0 0 0 7.5-7.5v-21.257c0-4.143-3.357-7.5-7.5-7.5zM230.329 367.45a7.56 7.56 0 0 0-5.3-2.19c-1.97 0-3.91.8-5.3 2.19a7.55 7.55 0 0 0-2.2 5.31c0 1.97.8 3.91 2.2 5.3 1.39 1.4 3.33 2.2 5.3 2.2 1.97 0 3.91-.8 5.3-2.2a7.543 7.543 0 0 0 2.2-5.3 7.548 7.548 0 0 0-2.2-5.31zM261.299 367.45a7.56 7.56 0 0 0-5.3-2.19c-1.97 0-3.91.8-5.3 2.19a7.55 7.55 0 0 0-2.2 5.31c0 1.97.8 3.91 2.2 5.3 1.39 1.4 3.33 2.2 5.3 2.2 1.979 0 3.91-.8 5.3-2.2a7.543 7.543 0 0 0 2.2-5.3c0-1.97-.8-3.91-2.2-5.31zM292.27 367.45a7.562 7.562 0 0 0-5.3-2.19c-1.97 0-3.91.8-5.3 2.19a7.55 7.55 0 0 0-2.2 5.31c0 1.97.8 3.9 2.2 5.3 1.39 1.4 3.33 2.2 5.3 2.2 1.97 0 3.91-.8 5.3-2.2a7.543 7.543 0 0 0 2.2-5.3c0-1.979-.8-3.91-2.2-5.31zM226.962 178.737h-9.309c-4.142 0-7.5 3.357-7.5 7.5s3.358 7.5 7.5 7.5h9.309a7.5 7.5 0 0 0 0-15zM260.655 178.737h-9.311c-4.142 0-7.5 3.357-7.5 7.5s3.358 7.5 7.5 7.5h9.311c4.143 0 7.5-3.357 7.5-7.5s-3.357-7.5-7.5-7.5zM294.346 178.737h-9.31c-4.143 0-7.5 3.357-7.5 7.5s3.357 7.5 7.5 7.5h9.31c4.143 0 7.5-3.357 7.5-7.5s-3.357-7.5-7.5-7.5zM243.809 151.179h-9.31c-4.142 0-7.5 3.357-7.5 7.5s3.358 7.5 7.5 7.5h9.31a7.5 7.5 0 0 0 0-15zM277.501 151.179h-9.31c-4.143 0-7.5 3.357-7.5 7.5s3.357 7.5 7.5 7.5h9.31c4.143 0 7.5-3.357 7.5-7.5s-3.357-7.5-7.5-7.5zM260.655 121.5h-9.311c-4.142 0-7.5 3.357-7.5 7.5s3.358 7.5 7.5 7.5h9.311c4.143 0 7.5-3.357 7.5-7.5s-3.357-7.5-7.5-7.5z"/><path d="M486.986 497h-15.929v-24.938c0-11.589-9.393-21.017-20.939-21.017-1.4 0-2.766.149-4.09.414V440c0-4.143-3.357-7.5-7.5-7.5s-7.5 3.357-7.5 7.5v23.448a20.898 20.898 0 0 0-1.555 5.084 20.856 20.856 0 0 0-9.779 0c-1.678-9.914-10.297-17.486-20.645-17.486-8.074 0-15.096 4.61-18.588 11.346a20.658 20.658 0 0 0-6.946-1.208c-11.546 0-20.938 9.427-20.938 21.015V497h-16.268V361.871h94.72v46.128c0 4.143 3.357 7.5 7.5 7.5s7.5-3.357 7.5-7.5v-46.128h1.656c6.893 0 12.5-5.607 12.5-12.5V307.77c0-6.893-5.607-12.5-12.5-12.5h-99.381v-19.92c6.478-.458 11.613-5.861 11.613-12.455v-44.957c0-6.893-5.607-12.5-12.5-12.5H336.89l-30.191-52.192a7.5 7.5 0 1 0-12.984 7.512l25.847 44.681H192.439l63.56-109.879 20.361 35.198a7.501 7.501 0 0 0 12.984-7.512l-24.35-42.091a12.089 12.089 0 0 0-1.496-2.037v-20.66h53.22c3.395 0 6.425-1.625 8.105-4.348 1.681-2.722 1.777-6.159.257-9.194l-6.531-13.037 6.531-13.037c1.521-3.035 1.424-6.473-.257-9.194-1.681-2.723-4.711-4.348-8.105-4.348h-53.549a7.5 7.5 0 0 0-14.67 2.2v71.617a12.089 12.089 0 0 0-1.496 2.037l-71.894 124.284h-10.527c-6.893 0-12.5 5.607-12.5 12.5v44.957c0 6.594 5.135 11.997 11.613 12.455v19.921H64.314c-6.893 0-12.5 5.607-12.5 12.5v41.601c0 6.893 5.607 12.5 12.5 12.5h1.657v100.293a20.597 20.597 0 0 0-6.214-.98c-11.546 0-20.939 9.427-20.939 21.015V497H25.013c-4.142 0-7.5 3.357-7.5 7.5s3.358 7.5 7.5 7.5h461.973c4.143 0 7.5-3.357 7.5-7.5s-3.357-7.5-7.5-7.5zM263.499 20.3h44.074l-2.773 5.537c-1.811 3.614-1.811 8.47-.001 12.084l2.774 5.537h-44.074V20.3zm-96.417 200.138h9.69v9.814a7.5 7.5 0 0 0 7.5 7.5 7.5 7.5 0 0 0 7.5-7.5v-9.814h13.691v9.814a7.5 7.5 0 0 0 7.5 7.5 7.5 7.5 0 0 0 7.5-7.5v-9.814h13.69v9.814a7.5 7.5 0 0 0 7.5 7.5 7.5 7.5 0 0 0 7.5-7.5v-9.814h13.691v9.814c0 4.143 3.357 7.5 7.5 7.5s7.5-3.357 7.5-7.5v-9.814h13.69v9.814a7.5 7.5 0 0 0 7.5 7.5c4.143 0 7.5-3.357 7.5-7.5v-9.814h13.691v9.814a7.5 7.5 0 0 0 7.5 7.5c4.143 0 7.5-3.357 7.5-7.5v-9.814h9.69v39.957H167.082v-39.957zm25.266 74.833h-13.652v-19.876h154.607v19.876h-13.652c-6.893 0-12.5 5.607-12.5 12.5v15.968H204.848v-15.968c0-6.893-5.607-12.5-12.5-12.5zm-125.534 15h19.963v10.089a7.5 7.5 0 0 0 7.5 7.5 7.5 7.5 0 0 0 7.5-7.5v-10.089h19.053v10.089a7.5 7.5 0 0 0 7.5 7.5 7.5 7.5 0 0 0 7.5-7.5v-10.089h19.054v10.089a7.5 7.5 0 0 0 7.5 7.5 7.5 7.5 0 0 0 7.5-7.5v-10.089h19.963v36.601H66.814v-36.601zM142.299 497H53.818v-14.802c0-3.316 2.664-6.015 5.939-6.015 2.283 0 4.327 1.303 5.334 3.399a7.5 7.5 0 1 0 14.261-3.246v-4.274c0-3.317 2.665-6.017 5.94-6.017 3.275 0 5.939 2.699 5.939 6.017v11.033a7.502 7.502 0 0 0 5.836 7.314 7.508 7.508 0 0 0 8.426-4.068c1.006-2.097 3.05-3.399 5.333-3.399 2.283 0 4.327 1.303 5.334 3.4a7.5 7.5 0 0 0 14.261-3.247v-11.033c0-3.317 2.665-6.017 5.939-6.017 3.275 0 5.939 2.699 5.939 6.017V497zm96.288 0h-5.886v-57.156c0-5.911 2.228-11.312 5.886-15.417V497zm19.824-79.415V497h-4.824v-79.415c0-.287-.02-.569-.051-.849.81-.085 1.631-.131 2.463-.131.832 0 1.653.046 2.463.131-.031.28-.051.562-.051.849zM279.298 497h-5.887v-72.573c3.658 4.105 5.887 9.505 5.887 15.417V497zm42.011 0h-27.01v-57.156c0-21.085-17.181-38.238-38.299-38.238s-38.298 17.153-38.298 38.238V497h-27.01v-88a7.5 7.5 0 0 0-7.5-7.5 7.5 7.5 0 0 0-7.5 7.5v88H157.3v-24.938c0-11.589-9.393-21.017-20.939-21.017-10.348 0-18.967 7.572-20.644 17.486a20.86 20.86 0 0 0-9.78 0c-1.677-9.914-10.296-17.486-20.644-17.486-1.481 0-2.925.158-4.32.453V361.87h94.719V376a7.5 7.5 0 0 0 7.5 7.5 7.5 7.5 0 0 0 7.5-7.5v-14.129h1.657c6.893 0 12.5-5.607 12.5-12.5v-10.633h102.303v10.633c0 6.893 5.607 12.5 12.5 12.5h1.657V497zm.841-186.729h19.963v10.089c0 4.143 3.357 7.5 7.5 7.5a7.5 7.5 0 0 0 7.5-7.5v-10.089h19.055v10.089c0 4.143 3.357 7.5 7.5 7.5s7.5-3.357 7.5-7.5v-10.089h19.053v10.089c0 4.143 3.357 7.5 7.5 7.5s7.5-3.357 7.5-7.5v-10.089h19.963v36.601H322.15v-36.601zM367.577 497v-14.802c0-3.316 2.664-6.015 5.938-6.015 2.283 0 4.327 1.303 5.333 3.399a7.5 7.5 0 0 0 14.262-3.246v-4.274c0-3.317 2.664-6.017 5.939-6.017s5.94 2.699 5.94 6.017v11.033a7.501 7.501 0 0 0 14.262 3.246c1.006-2.097 3.05-3.399 5.333-3.399s4.327 1.303 5.333 3.399a7.507 7.507 0 0 0 8.426 4.068 7.501 7.501 0 0 0 5.836-7.314v-11.033c0-3.317 2.664-6.017 5.939-6.017s5.939 2.699 5.939 6.017V497h-88.48z"/></svg>