<svg xmlns="http://www.w3.org/2000/svg" viewBox="0 0 300 300"><path d="M82.258 261.29h9.677v9.677h-9.677zM62.903 261.29h9.677v9.677h-9.677zM43.548 261.29h9.677v9.677h-9.677z"/><path d="M198.387 150v-24.194h-14.516V77.419h-9.677V43.548c0-11.681-8.327-21.455-19.355-23.7V0h-9.677v19.844c-11.027 2.25-19.355 12.019-19.355 23.705V77.42h-9.677v48.387h-14.516V150H0v150h300V150H198.387zM33.871 188.71h9.677v43.548h-9.677V188.71zm-9.678 101.612H9.677v-48.387h14.516v48.387zM9.677 232.258V188.71h14.516v43.548H9.677zm14.517-53.226H9.677v-19.355h14.517v19.355zm77.419 111.29H33.871v-48.387h67.742v48.387zm-48.387-58.064V188.71h9.677v43.548h-9.677zm19.355 0V188.71h9.677v43.548h-9.677zm29.032 0h-9.677V188.71h9.677v43.548zm0-53.226H33.871v-19.355h67.742v19.355zm72.58-91.935v38.71h-9.677v-38.71h9.677zM150 29.032c8.003 0 14.516 6.513 14.516 14.516h-29.032c0-8.003 6.513-14.516 14.516-14.516zm-14.516 24.194h29.032V77.42h-29.032V53.226zm19.355 33.871v38.71h-9.677v-38.71h9.677zm-29.033 0h9.677v38.71h-9.677v-38.71zm-4.839 203.225h-9.677V164.516h9.677v125.806zm48.388.001h-38.71v-24.194h38.71v24.194zm-38.71-33.871v-91.935h4.839v91.935h-4.839zm14.517 0v-91.935h9.677v91.935h-9.677zm19.354 0v-91.935h4.839v91.935h-4.839zm24.193 33.87h-9.677V164.516h9.677v125.806zm.001-135.483h-77.42v-19.355h77.42v19.355zm77.419 135.483h-67.742v-48.387h67.742v48.387zm-67.741-58.064V188.71h9.677v43.548h-9.677zm19.354 0V188.71h9.677v43.548h-9.677zm19.355 0V188.71h9.677v43.548h-9.677zm29.032 0h-9.677V188.71h9.677v43.548zm0-53.226h-67.742v-19.355h67.742v19.355zm24.193 111.291h-14.516v-48.387h14.516v48.387zm0-58.065h-14.516V188.71h14.516v43.548zm.001-53.226h-14.516v-19.355h14.516v19.355z"/><path d="M208.065 261.29h9.677v9.677h-9.677zM227.419 261.29h9.677v9.677h-9.677zM246.774 261.29h9.677v9.677h-9.677z"/></svg>