<svg xmlns="http://www.w3.org/2000/svg" viewBox="0 0 512 512"><path d="M427.069 210.226v-10.024c-44.4 0-80.523-36.122-80.523-80.522h-10.023c0 44.4-36.122 80.522-80.523 80.522s-80.522-36.122-80.522-80.522h-10.024c0 44.4-36.122 80.522-80.522 80.522v10.024c5.589 0 11.36-.513 16.037-1.487v55.948H84.932v10.024h342.137v-10.024h-16.706V208.74c5.346.974 11.117 1.487 16.706 1.487zm-304.716 54.461h-11.36v-58.39c4.01-1.192 8.019-2.641 11.36-4.328v62.718zm21.383 0h-11.36V196.56c4.01-2.498 8.02-5.296 11.36-8.369v76.497zm21.384 0h-11.36v-86.64c4.678-5.196 8.687-10.889 11.36-16.987v103.627zm21.384 0h-11.36V161.06c3.34 6.098 7.35 11.791 11.36 16.988v86.64zm21.383 0h-11.36V188.19c4.01 3.074 8.019 5.871 11.36 8.37v68.127zm21.384 0h-11.36V201.97c4.01 1.687 8.019 3.136 11.36 4.328v58.39zm21.383 0h-11.36V208.74c4.01.681 8.02 1.135 11.36 1.346v54.602zm21.384 0h-11.36v-54.602c4.01-.211 8.019-.665 11.36-1.346v55.948zm21.383 0h-11.36v-58.39c4.01-1.192 8.02-2.641 11.36-4.328v62.718zm21.384 0h-11.36V196.56c4.01-2.498 8.019-5.296 11.36-8.369v76.497zm21.384 0h-11.36v-86.64c4.677-5.196 8.687-10.889 11.36-16.987v103.627zm21.383 0h-11.36V161.06c3.341 6.098 7.35 11.791 11.36 16.988v86.64zm21.384 0h-11.36V188.19c4.01 3.074 8.019 5.871 11.36 8.37v68.127zm21.383 0h-11.36V201.97c4.01 1.687 8.02 3.136 11.36 4.328v58.39zM427.069 296.094v-10.023H84.932v10.023h80.188v22.052H84.932v10.024h80.188v26.73h10.023v-26.73H336.19v26.73h10.023v-26.73h80.857v-10.024h-80.857v-22.052h80.857zm-90.88 22.052H175.143v-22.052H336.19v22.052zM84.932 382.297h342.137v10.024H84.932z" data-original="#000000" class="active-path" data-old_color="#000000"/><path data-original="#000000" class="active-path" data-old_color="#000000" d="M202.541 339.53h58.805v10.023h-58.805zM245.308 360.913h58.805v10.024h-58.805zM223.925 360.913h10.692v10.024h-10.692zM191.85 360.913h10.691v10.024H191.85zM304.113 339.53h10.692v10.023h-10.692zM100.97 334.184h10.691v10.023h-10.692zM95.623 350.222h48.113v10.023H95.623zM320.15 360.913h90.881v10.024h-90.88z"/></svg>