<svg xmlns="http://www.w3.org/2000/svg" viewBox="0 0 472.116 472.116"><g fill="#191918"><path d="M143.461 387.849h9v29.429h-9zM165.146 387.849h9v29.429h-9zM297.963 387.849h9v29.429h-9zM319.648 387.849h9v29.429h-9zM207.552 244.369h9v12.391h-9zM231.56 244.369h9v12.391h-9zM255.568 244.369h9v12.391h-9zM207.552 282.316h9v24.008h-9zM223.557 282.316h9v24.008h-9zM239.562 282.316h9v24.008h-9zM255.568 282.316h9v24.008h-9zM220.717 172.554h9v34.849h-9zM242.402 172.554h9v34.849h-9zM77.081 410.516h9v16.762h-9zM98.765 410.516h9v16.762h-9zM26.098 410.516h9v16.762h-9zM47.783 410.516h9v16.762h-9zM386.036 410.516h9v16.762h-9zM364.351 410.516h9v16.762h-9zM437.018 410.516h9v16.762h-9zM415.333 410.516h9v16.762h-9z"/><path d="M449.518 373.266v-9h-99.764v-7.541h4.406a4.5 4.5 0 0 0 4.5-4.5c0-2.402-1.887-4.347-4.258-4.476v-10.41c2.37-.128 4.258-2.073 4.258-4.476s-1.887-4.347-4.258-4.476v-5.765c2.37-.128 4.258-2.073 4.258-4.476a4.5 4.5 0 0 0-4.5-4.5h-43.127v-42.111h4.792a4.5 4.5 0 0 0 0-9h-16.41v-11.764a4.5 4.5 0 0 0-9 0v11.764h-7.264v-24.301h3.245a4.5 4.5 0 0 0 0-9h-3.245v-4.941h3.245a4.5 4.5 0 0 0 0-9h-16.021v-50.631h5.179a4.5 4.5 0 0 0 0-9h-19.506v-18.105h1.694a4.5 4.5 0 0 0 0-9h-1.522L240.525 3.938a4.5 4.5 0 0 0-8.93 0L215.9 128.558h-.752a4.5 4.5 0 0 0 0 9h.923v18.105h-18.735a4.5 4.5 0 0 0 0 9h4.408v50.631h-15.25a4.5 4.5 0 0 0 0 9h2.475v4.941h-2.475a4.5 4.5 0 0 0 0 9h2.475v24.301h-6.493v-11.764a4.5 4.5 0 0 0-9 0v11.764h-16.411a4.5 4.5 0 0 0 0 9h4.021v42.111h-43.13a4.5 4.5 0 0 0-4.5 4.5c0 2.404 1.89 4.35 4.262 4.476v5.764c-2.372.126-4.262 2.072-4.262 4.476s1.89 4.35 4.262 4.476v10.409c-2.372.126-4.262 2.072-4.262 4.476a4.5 4.5 0 0 0 4.5 4.5h4.406v7.541H22.598v9h99.764v12.719H22.598v9h99.764v68.132H22.598v9h426.92v-9h-99.764v-68.132h99.764v-9h-99.764v-12.719h99.764zm-108.764 57.319h-54.892v-73.86h54.892v73.86zm-95.524 32.531h-21.441v-60.391c0-5.912 4.808-10.723 10.718-10.723 5.913 0 10.724 4.811 10.724 10.723v60.391zm-10.724-80.113c-10.872 0-19.718 8.848-19.718 19.723v60.391h-5.978v-60.55c0-14.173 11.525-25.703 25.692-25.703 14.173 0 25.704 11.53 25.704 25.703v60.55h-5.978v-60.391c.002-10.875-8.846-19.723-19.722-19.723zm-.003-15.14c-19.13 0-34.692 15.567-34.692 34.703v60.55h-4.558V356.725h81.609v106.392h-7.655v-60.55c.001-19.136-15.568-34.704-34.704-34.704zm-43.75-27.883a4.5 4.5 0 0 0-4.5 4.5v3.244h-33.981v-3.244a4.5 4.5 0 0 0-9 0v3.244h-16.555v-10.361h218.686v10.361h-16.559v-3.244a4.5 4.5 0 0 0-9 0v3.244h-33.981v-3.244a4.5 4.5 0 0 0-9 0v3.244h-37.854v-3.244a4.5 4.5 0 0 0-9 0v3.244h-34.756v-3.244a4.5 4.5 0 0 0-4.5-4.5zm111.281-68.444v42.111h-18.882v-42.111h18.882zm-104.066 42.111v-42.111h76.184v42.111h-76.184zM236.06 40.512l11.089 88.046h-22.178l11.089-88.046zm10.988 97.046v18.104h-6.488v-8.873h-9v8.873h-6.489v-18.104h21.977zm-36.304 27.105h50.632v50.631h-50.632v-50.631zm-12.776 59.631h76.184v4.941h-76.184v-4.941zm0 13.941h76.184v24.301h-76.184v-24.301zm-27.883 33.301h18.883v42.111h-18.883v-42.111zm175.318 51.111v5.716H126.717v-5.716h218.686zm-159.15 34.078v73.86h-54.892v-73.86h54.892zm-54.891 82.86h54.892v23.531h-54.892v-23.531zm154.501 23.531v-23.531h54.892v23.531h-54.892z"/></g></svg>